<svg width="24" height="24" viewBox="0 0 24 24" fill="none" xmlns="http://www.w3.org/2000/svg">
<path d="M6.9734 9.99999V9.24999C6.84023 9.24999 6.70946 9.28545 6.59453 9.35272L6.9734 9.99999ZM12.7273 9.83606L13.0687 9.16826C12.8362 9.0494 12.5586 9.06003 12.3358 9.19632C12.1131 9.33261 11.9773 9.57494 11.9773 9.83606H12.7273ZM12.7273 9.99999V10.75C13.1415 10.75 13.4773 10.4142 13.4773 9.99999H12.7273ZM6.59453 9.35272C4.59542 10.5229 3.25 12.6948 3.25 15.1818H4.75C4.75 13.2491 5.79393 11.5594 7.35228 10.6473L6.59453 9.35272ZM3.25 15.1818C3.25 18.9097 6.27208 21.9318 10 21.9318V20.4318C7.1005 20.4318 4.75 18.0813 4.75 15.1818H3.25ZM10 21.9318C13.7279 21.9318 16.75 18.9097 16.75 15.1818H15.25C15.25 18.0813 12.8995 20.4318 10 20.4318V21.9318ZM16.75 15.1818C16.75 12.5577 15.2524 10.2846 13.0687 9.16826L12.3859 10.5039C14.0877 11.3738 15.25 13.1427 15.25 15.1818H16.75ZM11.9773 9.83606V9.99999H13.4773V9.83606H11.9773ZM12.7273 9.24999H6.9734V10.75H12.7273V9.24999Z" fill="#fff"/>
<path d="M8 8C8 7.44772 8.44772 7 9 7H11C11.5523 7 12 7.44772 12 8V10H8V8Z" stroke="#fff" stroke-width="1.5"/>
<path d="M4 15L5.12203 14.065C6.18563 13.1786 7.75101 13.251 8.73 14.23V14.23C9.42928 14.9293 10.5654 14.9261 11.2594 14.2215V14.2215C12.2409 13.2251 13.8248 13.1544 14.8913 14.0593L16 15" stroke="#fff" stroke-width="1.2"/>
<path d="M7.5 15.5L7.8446 16.3737C7.89543 16.5026 7.99743 16.6046 8.12629 16.6554L9 17L8.12629 17.3446C7.99743 17.3954 7.89543 17.4974 7.8446 17.6263L7.5 18.5L7.15542 17.6263C7.1046 17.4974 7.00259 17.3954 6.87373 17.3446L6 17L6.87373 16.6554C7.00259 16.6046 7.1046 16.5026 7.15542 16.3737L7.5 15.5Z" fill="#fff"/>
<path d="M10 7.5V3.5C10 3.22386 10.2239 3 10.5 3H20.5C20.7761 3 21 3.22386 21 3.5V12.8C21 12.9105 20.9105 13 20.8 13H18.2C18.0895 13 18 12.9105 18 12.8V6.2C18 6.08954 17.9105 6 17.8 6H10.5C10.2239 6 10 6.22386 10 6.5V7.5Z" stroke="#fff" stroke-width="1.5"/>
</svg>
