<svg width="24" height="24" viewBox="0 0 24 24" fill="none" xmlns="http://www.w3.org/2000/svg">
<path d="M19.1398 21L9.85663 21V19.1111L11.4711 18.1667H18.0058L19.1398 19.1111V21Z" stroke="#fff" stroke-width="1.5"/>
<path d="M8.83551 11.65V9.10001H15.5194V11.65H8.83551Z" fill="#fff"/>
<path d="M15.5194 11.65H8V13.1454C8 13.2766 8.0515 13.4024 8.14341 13.4959L11.3419 16.75" stroke="#fff" stroke-width="1.5"/>
<path d="M15.5194 9.10001H17.6081L18.8613 9.95001V11.65L17.1903 12.5L14.4982 15.3333" stroke="#fff" stroke-width="1.2"/>
<path d="M10.785 18.1667V16.2778L12.9692 15.3333H18.2115V18.1667" stroke="#fff" stroke-width="1.5"/>
<path d="M8.83548 9.525H8V8.04512C8 7.90487 8.0589 7.77107 8.16234 7.67635L12.0341 4.13123C12.1263 4.04682 12.2468 4 12.3718 4H17.8162C17.9503 4 18.0788 4.05387 18.1728 4.1495L20.8066 6.82909C20.8985 6.9226 20.95 7.04847 20.95 7.17959V12.6983C20.95 12.8424 20.8879 12.9794 20.7795 13.0744L17.5086 15.9405" stroke="#fff" stroke-width="1.5"/>
<path d="M9.67096 6.55002H18.0258L20.95 9.52502" stroke="#fff" stroke-width="1.2"/>
<mask id="path-8-inside-1_102_35" fill="white">
<path fill-rule="evenodd" clip-rule="evenodd" d="M5.27519 8.77906C5.17873 8.89805 5.08578 9.01269 5.00368 9.11736V9.1268L4.99998 9.12208L4.99628 9.1268V9.11736C4.91418 9.01269 4.82123 8.89805 4.72477 8.77906L4.72472 8.77901C4.35077 8.31776 3.924 7.79137 3.87138 7.52827C3.82831 7.31292 3.94676 7.09054 4.06432 6.86983C4.08938 6.82278 4.1144 6.77581 4.1378 6.729C4.20441 6.59579 3.93799 6.19615 3.67157 5.86313C3.52154 5.6756 2.47266 5.72992 2.47266 5.72992C2.47266 5.72992 2.40606 4.93065 2.13964 4.73083C1.88779 4.54195 1.59785 4.56256 1.29863 4.58383H1.29863H1.29863C1.20218 4.59069 1.10476 4.59762 1.00734 4.59762C1.00734 4.54138 1.00556 4.48454 1.00375 4.42686C0.996998 4.21131 0.989874 3.98396 1.07395 3.73175C1.4165 2.70408 2.58106 2.00001 3.53835 2C3.60548 2 3.91521 2.19169 4.1841 2.35811L4.1841 2.35811L4.18411 2.35811C4.29252 2.42521 4.39428 2.48819 4.47083 2.53285H4.99628H5.00368H5.52913C5.60567 2.48819 5.70743 2.42522 5.81583 2.35813L5.81586 2.35811C6.08475 2.19169 6.39448 2 6.46161 2C7.4189 2.00001 8.58346 2.70408 8.92601 3.73175C9.01009 3.98396 9.00296 4.21131 8.99621 4.42686V4.42688C8.9944 4.48455 8.99262 4.54138 8.99262 4.59762C8.8952 4.59762 8.79778 4.59069 8.70133 4.58383C8.40211 4.56256 8.11217 4.54195 7.86032 4.73083C7.5939 4.93065 7.5273 5.72992 7.5273 5.72992C7.5273 5.72992 6.47842 5.6756 6.3284 5.86313C6.06197 6.19615 5.79555 6.59579 5.86216 6.729C5.88556 6.77581 5.91058 6.82278 5.93564 6.86983C6.0532 7.09054 6.17165 7.31292 6.12858 7.52827C6.07596 7.79137 5.64919 8.31775 5.27524 8.779L5.27523 8.77901L5.27519 8.77906ZM5.00095 5.5C5.20609 5.5 5.62 4.94036 5.62 4.25C5.62 3.55964 5.20609 3 5.00095 3C4.79582 3 4.32 3.55964 4.32 4.25C4.32 4.94036 4.79582 5.5 5.00095 5.5Z"/>
</mask>
<path fill-rule="evenodd" clip-rule="evenodd" d="M5.27519 8.77906C5.17873 8.89805 5.08578 9.01269 5.00368 9.11736V9.1268L4.99998 9.12208L4.99628 9.1268V9.11736C4.91418 9.01269 4.82123 8.89805 4.72477 8.77906L4.72472 8.77901C4.35077 8.31776 3.924 7.79137 3.87138 7.52827C3.82831 7.31292 3.94676 7.09054 4.06432 6.86983C4.08938 6.82278 4.1144 6.77581 4.1378 6.729C4.20441 6.59579 3.93799 6.19615 3.67157 5.86313C3.52154 5.6756 2.47266 5.72992 2.47266 5.72992C2.47266 5.72992 2.40606 4.93065 2.13964 4.73083C1.88779 4.54195 1.59785 4.56256 1.29863 4.58383H1.29863H1.29863C1.20218 4.59069 1.10476 4.59762 1.00734 4.59762C1.00734 4.54138 1.00556 4.48454 1.00375 4.42686C0.996998 4.21131 0.989874 3.98396 1.07395 3.73175C1.4165 2.70408 2.58106 2.00001 3.53835 2C3.60548 2 3.91521 2.19169 4.1841 2.35811L4.1841 2.35811L4.18411 2.35811C4.29252 2.42521 4.39428 2.48819 4.47083 2.53285H4.99628H5.00368H5.52913C5.60567 2.48819 5.70743 2.42522 5.81583 2.35813L5.81586 2.35811C6.08475 2.19169 6.39448 2 6.46161 2C7.4189 2.00001 8.58346 2.70408 8.92601 3.73175C9.01009 3.98396 9.00296 4.21131 8.99621 4.42686V4.42688C8.9944 4.48455 8.99262 4.54138 8.99262 4.59762C8.8952 4.59762 8.79778 4.59069 8.70133 4.58383C8.40211 4.56256 8.11217 4.54195 7.86032 4.73083C7.5939 4.93065 7.5273 5.72992 7.5273 5.72992C7.5273 5.72992 6.47842 5.6756 6.3284 5.86313C6.06197 6.19615 5.79555 6.59579 5.86216 6.729C5.88556 6.77581 5.91058 6.82278 5.93564 6.86983C6.0532 7.09054 6.17165 7.31292 6.12858 7.52827C6.07596 7.79137 5.64919 8.31775 5.27524 8.779L5.27523 8.77901L5.27519 8.77906ZM5.00095 5.5C5.20609 5.5 5.62 4.94036 5.62 4.25C5.62 3.55964 5.20609 3 5.00095 3C4.79582 3 4.32 3.55964 4.32 4.25C4.32 4.94036 4.79582 5.5 5.00095 5.5Z" fill="#fff"/>
<path d="M5.00368 9.11736L3.82344 8.1916L3.50368 8.59926V9.11736H5.00368ZM5.27519 8.77906L4.11289 7.83087L4.11001 7.83441L5.27519 8.77906ZM5.00368 9.1268L3.82265 10.0516L6.50368 13.4756V9.1268H5.00368ZM4.99998 9.12208L6.18101 8.19733L5.0004 6.68954L3.81927 8.19692L4.99998 9.12208ZM4.99628 9.1268H3.49628V13.4731L6.17699 10.052L4.99628 9.1268ZM4.99628 9.11736H6.49628V8.59926L6.17652 8.1916L4.99628 9.11736ZM4.72477 8.77906L5.88995 7.83441L5.88707 7.83087L4.72477 8.77906ZM4.72472 8.77901L3.55955 9.72367L3.56243 9.7272L4.72472 8.77901ZM3.87138 7.52827L2.40051 7.82244L2.40051 7.82244L3.87138 7.52827ZM4.06432 6.86983L2.74041 6.16466L2.74041 6.16466L4.06432 6.86983ZM4.1378 6.729L2.79616 6.05818L2.79616 6.05818L4.1378 6.729ZM3.67157 5.86313L4.84287 4.92608L4.84287 4.92608L3.67157 5.86313ZM2.47266 5.72992L0.977845 5.85448L1.09856 7.30308L2.55024 7.22791L2.47266 5.72992ZM2.13964 4.73083L3.03964 3.53083L3.03964 3.53083L2.13964 4.73083ZM1.29863 4.58383V6.08383H1.35189L1.40501 6.08006L1.29863 4.58383ZM1.29863 4.58383V3.08383H1.24537L1.19225 3.08761L1.29863 4.58383ZM1.00734 4.59762H-0.49266V6.09762H1.00734V4.59762ZM1.00375 4.42686L2.50302 4.37988L2.50302 4.37988L1.00375 4.42686ZM1.07395 3.73175L2.49697 4.20609L2.49697 4.20609L1.07395 3.73175ZM3.53835 2L3.53835 0.5L3.53834 0.5L3.53835 2ZM4.1841 2.35811L4.9791 1.0861L4.9735 1.08263L4.1841 2.35811ZM4.1841 2.35811L3.38908 3.63014L3.39795 3.6356L4.1841 2.35811ZM4.18411 2.35811L4.97351 1.08263L4.97026 1.08063L4.18411 2.35811ZM4.47083 2.53285L3.71503 3.82851L4.06531 4.03285H4.47083V2.53285ZM5.52913 2.53285V4.03285H5.93465L6.28493 3.82851L5.52913 2.53285ZM5.81583 2.35813L5.03413 1.07788L5.02643 1.08265L5.81583 2.35813ZM5.81586 2.35811L6.59755 3.63836L6.60526 3.63359L5.81586 2.35811ZM6.46161 2L6.46162 0.5H6.46161V2ZM8.92601 3.73175L7.50299 4.20609L7.50299 4.20609L8.92601 3.73175ZM8.99621 4.42686L7.49694 4.37988L7.49621 4.40336V4.42686H8.99621ZM8.99621 4.42688L10.4955 4.47386L10.4962 4.45038V4.42688H8.99621ZM8.99262 4.59762V6.09762H10.4926V4.59762H8.99262ZM8.70133 4.58383L8.80771 3.08761L8.80771 3.08761L8.70133 4.58383ZM7.86032 4.73083L6.96032 3.53083L6.96032 3.53083L7.86032 4.73083ZM7.5273 5.72992L7.44972 7.22791L8.9014 7.30308L9.02212 5.85448L7.5273 5.72992ZM6.3284 5.86313L7.4997 6.80017L7.4997 6.80017L6.3284 5.86313ZM5.86216 6.729L4.52052 7.39982L4.52052 7.39982L5.86216 6.729ZM5.93564 6.86983L7.25955 6.16466L7.25955 6.16466L5.93564 6.86983ZM6.12858 7.52827L4.65771 7.23409L4.65771 7.23409L6.12858 7.52827ZM5.27524 8.779L6.42757 9.73928L6.43405 9.73151L6.44041 9.72366L5.27524 8.779ZM5.27523 8.77901L4.1229 7.81873L4.11789 7.82475L4.11294 7.83082L5.27523 8.77901ZM6.18392 10.0431C6.25712 9.9498 6.34198 9.84507 6.44037 9.72372L4.11001 7.83441C4.01548 7.95102 3.91444 8.07558 3.82344 8.1916L6.18392 10.0431ZM6.50368 9.1268V9.11736H3.50368V9.1268H6.50368ZM3.81895 10.0468L3.82265 10.0516L6.18471 8.20205L6.18101 8.19733L3.81895 10.0468ZM6.17699 10.052L6.18069 10.0472L3.81927 8.19692L3.81557 8.20164L6.17699 10.052ZM3.49628 9.11736V9.1268H6.49628V9.11736H3.49628ZM3.5596 9.72372C3.65798 9.84507 3.74284 9.9498 3.81604 10.0431L6.17652 8.1916C6.08552 8.07558 5.98448 7.95102 5.88994 7.83441L3.5596 9.72372ZM3.56243 9.7272L3.56247 9.72725L5.88707 7.83087L5.88702 7.83082L3.56243 9.7272ZM2.40051 7.82244C2.46172 8.12847 2.5951 8.379 2.67072 8.51185C2.76095 8.67037 2.86486 8.82336 2.96044 8.95605C3.15036 9.21971 3.3796 9.5017 3.55955 9.72367L5.8899 7.83435C5.6959 7.59507 5.52478 7.38324 5.39467 7.20262C5.33023 7.11316 5.29422 7.0564 5.27794 7.0278C5.27039 7.01453 5.27519 7.0214 5.28543 7.04517C5.29383 7.06468 5.32177 7.13166 5.34225 7.23409L2.40051 7.82244ZM2.74041 6.16466C2.69336 6.25299 2.57667 6.46553 2.49339 6.7011C2.4056 6.94943 2.30609 7.35033 2.40051 7.82244L5.34225 7.23409C5.39361 7.49086 5.33178 7.6729 5.32184 7.70102C5.31564 7.71857 5.31407 7.71899 5.32656 7.69341C5.33988 7.66611 5.35659 7.6344 5.38823 7.575L2.74041 6.16466ZM2.79616 6.05818C2.78288 6.08475 2.7671 6.11455 2.74041 6.16466L5.38823 7.575C5.41166 7.53101 5.44592 7.46687 5.47945 7.39982L2.79616 6.05818ZM2.50026 6.80017C2.61218 6.94006 2.6935 7.05703 2.73143 7.12255C2.75362 7.16087 2.72993 7.12861 2.70273 7.04414C2.68871 7.00061 2.65881 6.89803 2.65041 6.75529C2.6423 6.61747 2.64909 6.35233 2.79616 6.05818L5.47944 7.39982C5.78001 6.79869 5.59469 6.23752 5.55831 6.12454C5.49156 5.91726 5.3971 5.7393 5.32771 5.61944C5.18247 5.36858 4.99738 5.11922 4.84287 4.92608L2.50026 6.80017ZM2.47266 5.72992C2.55024 7.22791 2.5501 7.22792 2.54998 7.22792C2.54994 7.22792 2.54981 7.22793 2.54974 7.22793C2.54959 7.22794 2.54945 7.22795 2.54933 7.22796C2.54909 7.22797 2.54891 7.22798 2.54879 7.22798C2.54855 7.228 2.54855 7.228 2.54877 7.22798C2.54922 7.22796 2.55059 7.2279 2.55282 7.22779C2.55728 7.22759 2.56513 7.22725 2.57591 7.22683C2.59758 7.22599 2.63049 7.22489 2.6711 7.22401C2.75446 7.22222 2.86018 7.22166 2.96324 7.22528C3.01428 7.22707 3.0592 7.2297 3.09651 7.23294C3.11485 7.23454 3.12953 7.23612 3.1407 7.23752C3.14619 7.23821 3.15041 7.23879 3.15342 7.23925C3.15645 7.2397 3.15788 7.23995 3.15784 7.23994C3.15781 7.23994 3.15577 7.23958 3.15189 7.23875C3.14806 7.23793 3.14164 7.23649 3.13295 7.23427C3.11728 7.23026 3.0848 7.22129 3.0411 7.20458C2.99956 7.18869 2.92725 7.158 2.84118 7.10447C2.75767 7.05253 2.62601 6.95735 2.50026 6.80017L4.84287 4.92608C4.57441 4.59051 4.24188 4.4519 4.11285 4.40255C3.94788 4.33945 3.7931 4.30588 3.68406 4.28646C3.46252 4.24698 3.23621 4.23301 3.06847 4.22712C2.89056 4.22088 2.72468 4.22217 2.60669 4.22471C2.54663 4.226 2.49642 4.22766 2.46014 4.22907C2.44195 4.22977 2.42712 4.23041 2.41614 4.23091C2.41065 4.23116 2.40611 4.23138 2.40258 4.23155C2.40082 4.23163 2.39931 4.23171 2.39806 4.23177C2.39743 4.2318 2.39687 4.23183 2.39638 4.23186C2.39613 4.23187 2.3959 4.23188 2.39569 4.23189C2.39558 4.2319 2.39543 4.23191 2.39538 4.23191C2.39523 4.23192 2.39509 4.23192 2.47266 5.72992ZM1.23964 5.93083C1.0984 5.8249 1.01836 5.71718 0.982362 5.66318C0.944254 5.60602 0.926832 5.56563 0.923195 5.55706C0.917537 5.54372 0.927191 5.56506 0.941778 5.6307C0.954732 5.68899 0.964628 5.75048 0.971252 5.80015C0.974401 5.82377 0.97644 5.84191 0.977523 5.85221C0.978059 5.85729 0.978339 5.86025 0.978388 5.86077C0.978412 5.86103 0.978377 5.86066 0.978285 5.85963C0.97824 5.85912 0.97818 5.85843 0.978107 5.85758C0.97807 5.85715 0.97803 5.85668 0.977986 5.85616C0.977964 5.85591 0.977942 5.85564 0.977918 5.85536C0.977907 5.85522 0.977888 5.855 0.977882 5.85493C0.977864 5.85471 0.977845 5.85448 2.47266 5.72992C3.96748 5.60535 3.96746 5.60512 3.96744 5.60488C3.96744 5.6048 3.96742 5.60457 3.9674 5.6044C3.96738 5.60407 3.96735 5.60373 3.96732 5.60338C3.96726 5.60267 3.96719 5.60191 3.96712 5.60109C3.96698 5.59947 3.96682 5.59764 3.96664 5.5956C3.96628 5.59153 3.96584 5.58665 3.96531 5.58101C3.96426 5.56973 3.96285 5.55532 3.96104 5.53816C3.95744 5.50396 3.95219 5.4581 3.94494 5.40366C3.93075 5.29723 3.90734 5.14641 3.87034 4.97991C3.83497 4.82076 3.77802 4.60481 3.68494 4.38541C3.60827 4.20468 3.42624 3.82079 3.03964 3.53083L1.23964 5.93083ZM1.40501 6.08006C1.48578 6.07432 1.52675 6.07165 1.56128 6.07072C1.59237 6.06988 1.5908 6.07153 1.57031 6.06924C1.54754 6.0667 1.49833 6.05904 1.43452 6.03599C1.36816 6.01202 1.30086 5.97675 1.23964 5.93083L3.03964 3.53083C2.27148 2.95471 1.39386 3.07328 1.19225 3.08761L1.40501 6.08006ZM1.29863 6.08383H1.29863V3.08383H1.29863V6.08383ZM1.29863 6.08383H1.29863V3.08383H1.29863V6.08383ZM1.00734 6.09762C1.16688 6.09762 1.31741 6.08629 1.40501 6.08006L1.19225 3.08761C1.08694 3.0951 1.04263 3.09762 1.00734 3.09762V6.09762ZM-0.495512 4.47384C-0.493573 4.53572 -0.49266 4.56888 -0.49266 4.59762H2.50734C2.50734 4.51387 2.50469 4.43336 2.50302 4.37988L-0.495512 4.47384ZM-0.349079 3.2574C-0.527852 3.79372 -0.501863 4.27115 -0.495512 4.47384L2.50302 4.37988C2.50124 4.32307 2.50021 4.28762 2.50003 4.25457C2.49986 4.2239 2.50057 4.20596 2.5013 4.19537C2.50245 4.17845 2.50313 4.18762 2.49697 4.20609L-0.349079 3.2574ZM3.53834 0.5C2.71644 0.500006 1.89978 0.791956 1.23965 1.23504C0.575356 1.68093 -0.0505219 2.36173 -0.349079 3.2574L2.49697 4.20609C2.54097 4.07409 2.66865 3.88902 2.91159 3.72595C3.1587 3.56009 3.40297 3.5 3.53836 3.5L3.53834 0.5ZM4.9735 1.08263C4.84525 1.00326 4.6783 0.899738 4.53369 0.816525C4.46319 0.775963 4.37285 0.725571 4.28106 0.681329C4.23644 0.659819 4.16661 0.627622 4.08371 0.597694C4.04481 0.583651 3.82421 0.5 3.53835 0.5V3.5C3.45381 3.5 3.38327 3.49266 3.33228 3.48535C3.28023 3.47788 3.23663 3.46868 3.20379 3.46081C3.14006 3.44552 3.09163 3.42905 3.06498 3.41943C3.01292 3.40063 2.9804 3.38471 2.97846 3.38378C2.97231 3.38081 2.97446 3.38166 2.98719 3.38855C2.99908 3.39499 3.01566 3.40424 3.03745 3.41677C3.08162 3.44219 3.13563 3.47446 3.19868 3.51288C3.26137 3.55108 3.32668 3.59149 3.3947 3.63359L4.9735 1.08263ZM4.9791 1.08611L4.9791 1.08611L3.3891 3.6301L3.3891 3.63011L4.9791 1.08611ZM4.97026 1.08063L4.97025 1.08062L3.39795 3.6356L3.39796 3.6356L4.97026 1.08063ZM5.22664 1.23718C5.17095 1.20469 5.08852 1.15382 4.97351 1.08263L3.39471 3.63359C3.49651 3.6966 3.61761 3.77169 3.71503 3.82851L5.22664 1.23718ZM4.99628 1.03285H4.47083V4.03285H4.99628V1.03285ZM5.00368 1.03285H4.99628V4.03285H5.00368V1.03285ZM5.52913 1.03285H5.00368V4.03285H5.52913V1.03285ZM5.02643 1.08265C4.91142 1.15383 4.829 1.20469 4.77332 1.23718L6.28493 3.82851C6.38234 3.77169 6.50344 3.69661 6.60523 3.63361L5.02643 1.08265ZM5.03419 1.07788L5.03415 1.0779L6.5975 3.63836L6.59754 3.63833L5.03419 1.07788ZM6.46161 0.5C6.17575 0.5 5.95515 0.583652 5.91625 0.597694C5.83335 0.627623 5.76352 0.659819 5.7189 0.681329C5.62711 0.725571 5.53677 0.775963 5.46628 0.816525C5.32166 0.899738 5.15471 1.00326 5.02646 1.08263L6.60526 3.63359C6.67328 3.59149 6.73859 3.55108 6.80128 3.51288C6.86433 3.47446 6.91834 3.44219 6.96251 3.41677C6.9843 3.40424 7.00088 3.39499 7.01277 3.38855C7.0255 3.38166 7.02765 3.38081 7.0215 3.38378C7.01956 3.38471 6.98704 3.40063 6.93498 3.41943C6.90833 3.42905 6.8599 3.44552 6.79618 3.46081C6.76333 3.46868 6.71973 3.47788 6.66768 3.48535C6.6167 3.49266 6.54615 3.5 6.46161 3.5V0.5ZM10.349 3.2574C10.0505 2.36173 9.4246 1.68093 8.76031 1.23504C8.10018 0.791956 7.28352 0.500006 6.46162 0.5L6.4616 3.5C6.59699 3.5 6.84126 3.56009 7.08837 3.72595C7.33131 3.88902 7.45899 4.07409 7.50299 4.20609L10.349 3.2574ZM10.4955 4.47384C10.5018 4.27115 10.5278 3.79372 10.349 3.2574L7.50299 4.20609C7.49683 4.18762 7.49751 4.17845 7.49867 4.19537C7.49939 4.20596 7.5001 4.22389 7.49994 4.25457C7.49975 4.28762 7.49872 4.32306 7.49694 4.37988L10.4955 4.47384ZM10.4962 4.42688V4.42686H7.49621V4.42688H10.4962ZM10.4926 4.59762C10.4926 4.56889 10.4935 4.53574 10.4955 4.47386L7.49694 4.3799C7.49527 4.43337 7.49262 4.51388 7.49262 4.59762H10.4926ZM8.59495 6.08006C8.68255 6.08629 8.83308 6.09762 8.99262 6.09762V3.09762C8.95733 3.09762 8.91302 3.0951 8.80771 3.08761L8.59495 6.08006ZM8.76032 5.93083C8.6991 5.97675 8.6318 6.01202 8.56544 6.03599C8.50163 6.05904 8.45242 6.0667 8.42965 6.06924C8.40916 6.07153 8.40759 6.06988 8.43868 6.07072C8.47321 6.07165 8.51418 6.07432 8.59495 6.08006L8.80771 3.08761C8.60611 3.07328 7.72848 2.95471 6.96032 3.53083L8.76032 5.93083ZM7.5273 5.72992C9.02212 5.85448 9.0221 5.85471 9.02208 5.85493C9.02207 5.855 9.02205 5.85522 9.02204 5.85536C9.02202 5.85564 9.022 5.85591 9.02197 5.85616C9.02193 5.85668 9.02189 5.85715 9.02185 5.85758C9.02178 5.85843 9.02172 5.85912 9.02168 5.85963C9.02158 5.86066 9.02155 5.86103 9.02157 5.86077C9.02162 5.86025 9.0219 5.85729 9.02244 5.85221C9.02352 5.84191 9.02556 5.82377 9.02871 5.80015C9.03533 5.75048 9.04523 5.68899 9.05818 5.6307C9.07277 5.56506 9.08242 5.54372 9.07676 5.55706C9.07313 5.56563 9.05571 5.60602 9.0176 5.66318C8.9816 5.71718 8.90156 5.8249 8.76033 5.93083L6.96032 3.53083C6.57372 3.82079 6.39169 4.20468 6.31502 4.38541C6.22194 4.60481 6.16499 4.82076 6.12962 4.97991C6.09262 5.14641 6.06922 5.29723 6.05502 5.40366C6.04777 5.4581 6.04252 5.50396 6.03892 5.53816C6.03711 5.55532 6.0357 5.56973 6.03465 5.58101C6.03412 5.58665 6.03368 5.59153 6.03332 5.5956C6.03314 5.59764 6.03298 5.59947 6.03284 5.60109C6.03277 5.60191 6.0327 5.60267 6.03264 5.60338C6.03261 5.60373 6.03258 5.60407 6.03256 5.6044C6.03254 5.60457 6.03252 5.6048 6.03252 5.60489C6.0325 5.60512 6.03248 5.60535 7.5273 5.72992ZM7.4997 6.80017C7.37395 6.95735 7.24229 7.05253 7.15878 7.10447C7.07271 7.158 7.0004 7.18869 6.95886 7.20457C6.91516 7.22129 6.88268 7.23026 6.86701 7.23427C6.85832 7.23649 6.8519 7.23793 6.84807 7.23875C6.84419 7.23958 6.84215 7.23994 6.84212 7.23994C6.84208 7.23995 6.84351 7.2397 6.84654 7.23925C6.84955 7.23879 6.85377 7.23821 6.85926 7.23752C6.87043 7.23612 6.88511 7.23454 6.90345 7.23294C6.94076 7.2297 6.98568 7.22707 7.03672 7.22528C7.13978 7.22166 7.2455 7.22222 7.32886 7.22401C7.36947 7.22489 7.40238 7.22599 7.42405 7.22683C7.43483 7.22725 7.44268 7.22759 7.44714 7.22779C7.44937 7.2279 7.45074 7.22796 7.45119 7.22798C7.45141 7.228 7.45141 7.228 7.45117 7.22798C7.45105 7.22798 7.45087 7.22797 7.45063 7.22796C7.45051 7.22795 7.45037 7.22794 7.45022 7.22793C7.45015 7.22793 7.45002 7.22792 7.44998 7.22792C7.44986 7.22792 7.44972 7.22791 7.5273 5.72992C7.60487 4.23192 7.60473 4.23192 7.60458 4.23191C7.60453 4.23191 7.60438 4.2319 7.60428 4.23189C7.60406 4.23188 7.60383 4.23187 7.60358 4.23186C7.60309 4.23183 7.60253 4.2318 7.6019 4.23177C7.60065 4.23171 7.59914 4.23163 7.59738 4.23155C7.59385 4.23138 7.58931 4.23116 7.58382 4.23091C7.57284 4.23041 7.55801 4.22977 7.53982 4.22907C7.50354 4.22766 7.45333 4.226 7.39327 4.22471C7.27528 4.22217 7.1094 4.22088 6.93149 4.22712C6.76375 4.23301 6.53744 4.24698 6.3159 4.28646C6.20686 4.30588 6.05208 4.33945 5.88711 4.40255C5.75808 4.4519 5.42555 4.59051 5.15709 4.92608L7.4997 6.80017ZM7.2038 6.05818C7.35087 6.35233 7.35766 6.61747 7.34955 6.75529C7.34115 6.89803 7.31125 7.00061 7.29723 7.04414C7.27003 7.12861 7.24634 7.16087 7.26853 7.12255C7.30646 7.05703 7.38778 6.94006 7.4997 6.80017L5.15709 4.92608C5.00259 5.11922 4.81749 5.36858 4.67225 5.61944C4.60286 5.7393 4.5084 5.91726 4.44165 6.12454C4.40527 6.23752 4.21995 6.79869 4.52052 7.39982L7.2038 6.05818ZM7.25955 6.16466C7.23286 6.11455 7.21708 6.08474 7.20379 6.05817L4.52052 7.39982C4.55404 7.46688 4.5883 7.53101 4.61173 7.575L7.25955 6.16466ZM7.59945 7.82244C7.69387 7.35033 7.59436 6.94943 7.50657 6.7011C7.42329 6.46553 7.3066 6.253 7.25955 6.16466L4.61173 7.57499C4.64337 7.6344 4.66007 7.6661 4.6734 7.69341C4.68589 7.71899 4.68432 7.71857 4.67812 7.70102C4.66818 7.6729 4.60635 7.49086 4.65771 7.23409L7.59945 7.82244ZM6.44041 9.72366C6.62037 9.5017 6.84961 9.2197 7.03953 8.95604C7.1351 8.82336 7.23902 8.67036 7.32924 8.51185C7.40486 8.379 7.53824 8.12846 7.59945 7.82244L4.65771 7.23409C4.67819 7.13166 4.70613 7.06468 4.71453 7.04517C4.72477 7.0214 4.72957 7.01453 4.72202 7.0278C4.70575 7.0564 4.66973 7.11316 4.60529 7.20261C4.47519 7.38324 4.30407 7.59506 4.11007 7.83435L6.44041 9.72366ZM6.42757 9.73929L6.42757 9.73928L4.12291 7.81873L4.1229 7.81873L6.42757 9.73929ZM6.43749 9.72725L6.43753 9.7272L4.11294 7.83082L4.11289 7.83087L6.43749 9.72725ZM4.12 4.25C4.12 4.30517 4.09981 4.36379 4.08469 4.39028C4.07647 4.40468 4.09357 4.36799 4.15977 4.30609C4.19295 4.27507 4.26394 4.21381 4.37577 4.15364C4.47805 4.09862 4.69707 4 5.00095 4V7C5.64739 7 6.07507 6.62236 6.20867 6.49745C6.41018 6.30904 6.56921 6.0893 6.69011 5.87748C6.93323 5.45157 7.12 4.88519 7.12 4.25H4.12ZM5.00095 4.5C4.69707 4.5 4.47805 4.40138 4.37577 4.34636C4.26394 4.28619 4.19295 4.22493 4.15977 4.19391C4.09357 4.13201 4.07647 4.09532 4.08469 4.10972C4.09981 4.13621 4.12 4.19483 4.12 4.25H7.12C7.12 3.61481 6.93323 3.04843 6.69011 2.62252C6.56921 2.4107 6.41018 2.19096 6.20867 2.00255C6.07507 1.87764 5.64739 1.5 5.00095 1.5V4.5ZM5.82 4.25C5.82 4.24112 5.82768 4.20486 5.8474 4.174C5.85667 4.15951 5.84372 4.18587 5.7868 4.23488C5.75856 4.2592 5.69498 4.31028 5.5944 4.36159C5.50768 4.40583 5.29733 4.5 5.00095 4.5V1.5C4.38178 1.5 3.95803 1.85067 3.82922 1.96158C3.6254 2.1371 3.45503 2.34652 3.3197 2.55823C3.05023 2.97979 2.82 3.56852 2.82 4.25H5.82ZM5.00095 4C5.29733 4 5.50768 4.09417 5.5944 4.13841C5.69498 4.18972 5.75856 4.2408 5.7868 4.26512C5.84372 4.31413 5.85667 4.34049 5.8474 4.326C5.82768 4.29514 5.82 4.25888 5.82 4.25H2.82C2.82 4.93148 3.05023 5.52021 3.3197 5.94177C3.45503 6.15348 3.6254 6.3629 3.82922 6.53842C3.95803 6.64933 4.38178 7 5.00095 7V4Z" fill="#fff" mask="url(#path-8-inside-1_102_35)"/>
</svg>
