<svg width="100" height="100" viewBox="0 0 100 100" fill="none" xmlns="http://www.w3.org/2000/svg">
<path fill-rule="evenodd" clip-rule="evenodd" d="M87.7589 42.61C88.8455 42.5635 89.3955 41.3759 89.349 40.2893C89.3024 39.2028 88.3839 38.3597 87.2973 38.4062C86.2107 38.4528 85.3676 39.3713 85.4142 40.4579C85.4607 41.5444 86.6724 42.6566 87.7589 42.61ZM87.8553 44.8585C90.1836 44.7587 91.6971 42.5214 91.5974 40.193C91.4977 37.8647 89.5293 36.058 87.201 36.1578C84.8726 36.2575 83.066 38.2259 83.1657 40.5542C83.2655 42.8825 85.5269 44.9582 87.8553 44.8585Z" fill="#FFD7C6"/>
<path d="M82.3064 46.7856L80.7927 44.3163C83.3343 44.489 85.3781 43.9455 87.2973 42.737L89.2365 44.2362C86.7792 46.0308 83.9927 46.7133 82.3064 46.7856Z" fill="#FFD7C6"/>
<path d="M97.0291 39.8629C94.5604 42.9408 92.6257 43.1077 88.6021 42.5739L87.5702 44.8511C97.0518 46.1091 97.654 39.0838 97.0291 39.8629Z" fill="#FFD7C6"/>
<path d="M36.8627 30.3969L31.7663 26.0316L36.1443 16.3964L37.173 21.6409L42.4436 18.2765L40.3736 24.0066L45.0753 24.1082L36.8627 30.3969Z" fill="#BBB52E"/>
<path d="M60.9185 32.2984C51.5027 31.757 43.3346 33.4894 32.5794 26.1304C22.6611 19.3441 16.4146 25.1506 10.5425 11.2141L5.49903 15.0256C-2.67139 40.7323 4.52828 67.8692 32.9592 78.581C89.3043 99.8099 102.113 34.6669 60.9185 32.2984Z" fill="#FFD7C6"/>
<path fill-rule="evenodd" clip-rule="evenodd" d="M47.6525 82.3975L52.882 32.1704C55.6794 32.111 58.3786 32.1523 60.9186 32.2984C98.25 34.4448 91.2316 88.1451 47.6525 82.3975Z" fill="#B4D6FF"/>
<path d="M51.2109 31.7084C51.3543 30.8676 52.111 30.2865 52.9618 30.3478C53.9809 30.4211 55.3416 30.5217 56.4433 30.6122C57.5781 30.7055 59.4051 30.6879 60.8039 30.6539C61.8365 30.6288 62.6675 31.5133 62.5615 32.5407C62.1043 36.9735 60.984 48.1074 60.3205 57.0244C59.6456 66.0955 60.2888 77.7553 60.5803 82.1467C60.6446 83.1161 59.8877 83.9409 58.9163 83.9527C57.1957 83.9736 54.6868 83.9875 53.4963 83.9138C52.2954 83.8394 50.2223 83.5554 48.8491 83.3548C48.0488 83.2379 47.454 82.5692 47.4408 81.7605C47.3849 78.3349 47.3541 68.8206 48.3371 56.1168C49.2989 43.6872 50.649 35.0027 51.2109 31.7084Z" fill="#D1E9FF"/>
<path d="M7.03278 16.3265C8.72066 16.3265 9.84598 15.0256 10.5425 11.2141L5.49903 15.0256C5.30066 15.5521 6.18884 16.3265 7.03278 16.3265Z" fill="#FF7474"/>
<path d="M19.4764 30.7688C18.7484 31.3913 17.3362 31.0851 16.839 30.5036C16.3418 29.9221 16.7783 29.5221 17.7988 28.9653C18.9754 28.3234 19.3971 28.0072 19.8943 28.5887C20.3915 29.1702 20.2044 30.1463 19.4764 30.7688Z" fill="#3A4759"/>
<path fill-rule="evenodd" clip-rule="evenodd" d="M18.2346 29.0467C18.1412 29.0983 18.0413 29.1535 17.9336 29.2123C17.6821 29.3495 17.4744 29.4729 17.3108 29.5885C17.1452 29.7056 17.039 29.8049 16.978 29.8896C16.9207 29.9691 16.9111 30.0237 16.9155 30.0676C16.9207 30.1184 16.9498 30.2003 17.0528 30.3207C17.2422 30.5423 17.6459 30.7436 18.1104 30.8091C18.5728 30.8744 19.014 30.794 19.2936 30.555C19.9509 29.993 20.0406 29.1926 19.6805 28.7716C19.576 28.6493 19.4969 28.5997 19.4346 28.5792C19.3749 28.5595 19.2982 28.5558 19.176 28.5895C19.0489 28.6245 18.8923 28.6942 18.6826 28.8034C18.5481 28.8735 18.4016 28.9544 18.2346 29.0467ZM19.6106 28.0448C19.804 28.1085 19.964 28.2374 20.1081 28.4059C20.7425 29.1478 20.458 30.2996 19.6592 30.9826C19.2108 31.366 18.5818 31.4438 18.0318 31.3662C17.484 31.2889 16.933 31.0464 16.6252 30.6864C16.4795 30.5161 16.3768 30.3299 16.3558 30.1247C16.3342 29.9127 16.4042 29.7236 16.5215 29.5607C16.635 29.4032 16.7983 29.2618 16.986 29.1291C17.1757 28.995 17.4053 28.8596 17.6641 28.7184C17.7647 28.6635 17.8613 28.6101 17.9536 28.5591C18.1255 28.4642 18.2824 28.3775 18.4227 28.3044C18.6386 28.1919 18.8391 28.0986 19.0267 28.047C19.2191 27.9941 19.4146 27.9802 19.6106 28.0448Z" fill="#3A4759"/>
<path d="M7.54661 58.8582C9.22667 58.173 10.6683 56.7184 13.0644 53.6309C14.6711 56.4927 18.0935 62.669 15.6736 63.9094C11.7153 65.9382 4.42769 65.2551 1.15525 64.2534L0 60.1272C2.19396 60.7021 5.86654 59.5434 7.54661 58.8582Z" fill="#FFD7C6"/>
<path d="M32.5502 16.3813C33.5121 17.6863 32.4366 25.5049 32.2288 29.4983L28.8432 28.3181C28.8426 25.0762 28.421 19.9554 25.9004 17.3076C23.8513 15.1551 24.9461 6.96494 25.5591 7.04627C26.6746 7.19426 31.4773 14.9259 32.5502 16.3813Z" fill="#FFD7C6"/>
<path d="M67.1526 73.737C64.3665 72.2486 61.2963 72.9601 61.0373 74.9122L59.9274 83.2783C59.6018 85.7323 57.6821 89.5073 57.2922 90.3069H61.9649C66.1017 88.5162 73.5125 77.1348 67.1526 73.737Z" fill="#FFD7C6"/>
<path d="M95.5471 38.7164C94.5011 39.0753 92.3297 40.1354 91.1431 40.582L94.1708 43.0898L93.6386 46.9372L98.8867 44.5456L94.9354 42.9063L95.5471 38.7164Z" fill="#E66666"/>
</svg>
